<?xml version="1.0" encoding="UTF-8"?>
<svg width="200" height="200" viewBox="0 0 200 200" xmlns="http://www.w3.org/2000/svg">
  <defs>
    <!-- Pattern for repeating elements -->
    <pattern id="villagePattern" x="0" y="0" width="100" height="100" patternUnits="userSpaceOnUse">
      <!-- Small hut -->
      <path d="M20 50 L35 35 L50 50 L50 70 L20 70 Z" fill="#8D6E63" opacity="0.6"/>
      <rect x="30" y="60" width="10" height="10" fill="#5D4037" opacity="0.6"/>
      
      <!-- Tree -->
      <path d="M70 70 L80 40 L90 70 Z" fill="#2E7D32" opacity="0.6"/>
      <rect x="77" y="70" width="6" height="10" fill="#4E342E" opacity="0.6"/>
      
      <!-- Sun -->
      <circle cx="15" cy="15" r="10" fill="#FFA000" opacity="0.4"/>
      
      <!-- Birds -->
      <path d="M85 20 Q90 15 95 20 Q90 25 85 20" fill="#795548" opacity="0.4"/>
      <path d="M65 25 Q70 20 75 25 Q70 30 65 25" fill="#795548" opacity="0.4"/>
      
      <!-- Field lines -->
      <path d="M0 90 Q25 85 50 90 Q75 95 100 90" stroke="#8D6E63" fill="none" stroke-width="2" opacity="0.3"/>
      <path d="M0 80 Q25 75 50 80 Q75 85 100 80" stroke="#8D6E63" fill="none" stroke-width="2" opacity="0.3"/>
    </pattern>
  </defs>
  
  <!-- Background with pattern -->
  <rect width="100%" height="100%" fill="url(#villagePattern)"/>
</svg>
