<?xml version="1.0" encoding="UTF-8"?>
<svg width="512" height="512" viewBox="0 0 512 512" fill="none" xmlns="http://www.w3.org/2000/svg">
  <!-- Background -->
  <rect width="512" height="512" rx="100" fill="#4CAF50"/>
  
  <!-- Sun -->
  <circle cx="400" cy="100" r="40" fill="#FFC107"/>
  
  <!-- Mountains -->
  <path d="M0 350 L200 150 L400 350 L512 250 L512 512 L0 512 Z" fill="#388E3C"/>
  
  <!-- House -->
  <g transform="translate(156, 200)">
    <!-- House Body -->
    <rect x="50" y="80" width="100" height="100" fill="#795548"/>
    
    <!-- Roof -->
    <path d="M25 80 L100 20 L175 80 Z" fill="#8D6E63"/>
    
    <!-- Door -->
    <rect x="85" y="130" width="30" height="50" fill="#5D4037"/>
    
    <!-- Windows -->
    <rect x="65" y="100" width="20" height="20" fill="#FFFFFF"/>
    <rect x="115" y="100" width="20" height="20" fill="#FFFFFF"/>
  </g>
  
  <!-- Trees -->
  <g transform="translate(50, 250)">
    <path d="M0 80 L40 0 L80 80 Z" fill="#2E7D32"/>
    <rect x="35" y="80" width="10" height="30" fill="#795548"/>
  </g>
  
  <g transform="translate(350, 280)">
    <path d="M0 60 L30 0 L60 60 Z" fill="#2E7D32"/>
    <rect x="25" y="60" width="10" height="20" fill="#795548"/>
  </g>
</svg>
