<?xml version="1.0" encoding="UTF-8"?>
<svg width="24" height="24" viewBox="0 0 24 24" fill="none" xmlns="http://www.w3.org/2000/svg">
  <path d="M12 15.5C11.7167 15.5 11.4793 15.404 11.288 15.212C11.096 15.0207 11 14.7833 11 14.5V9.5C11 9.21667 11.096 8.979 11.288 8.787C11.4793 8.59567 11.7167 8.5 12 8.5C12.2833 8.5 12.521 8.59567 12.713 8.787C12.9043 8.979 13 9.21667 13 9.5V14.5C13 14.7833 12.9043 15.0207 12.713 15.212C12.521 15.404 12.2833 15.5 12 15.5ZM12 18.5C11.7167 18.5 11.4793 18.404 11.288 18.212C11.096 18.0207 11 17.7833 11 17.5C11 17.2167 11.096 16.979 11.288 16.787C11.4793 16.5957 11.7167 16.5 12 16.5C12.2833 16.5 12.521 16.5957 12.713 16.787C12.9043 16.979 13 17.2167 13 17.5C13 17.7833 12.9043 18.0207 12.713 18.212C12.521 18.404 12.2833 18.5 12 18.5ZM12 22.5C10.6833 22.5 9.446 22.2373 8.288 21.712C7.12933 21.1873 6.125 20.475 5.275 19.575C4.425 18.675 3.77067 17.6457 3.312 16.487C2.854 15.329 2.625 14.0917 2.625 12.775C2.625 11.4583 2.854 10.221 3.312 9.063C3.77067 7.90433 4.425 6.875 5.275 5.975C6.125 5.075 7.12933 4.36267 8.288 3.838C9.446 3.31267 10.6833 3.05 12 3.05C13.3167 3.05 14.5543 3.31267 15.713 3.838C16.871 4.36267 17.875 5.075 18.725 5.975C19.575 6.875 20.229 7.90433 20.687 9.063C21.1457 10.221 21.375 11.4583 21.375 12.775C21.375 14.0917 21.1457 15.329 20.687 16.487C20.229 17.6457 19.575 18.675 18.725 19.575C17.875 20.475 16.871 21.1873 15.713 21.712C14.5543 22.2373 13.3167 22.5 12 22.5ZM12 20.5C14.2333 20.5 16.125 19.725 17.675 18.175C19.225 16.625 20 14.7333 20 12.5C20 10.2667 19.225 8.375 17.675 6.825C16.125 5.275 14.2333 4.5 12 4.5C9.76667 4.5 7.875 5.275 6.325 6.825C4.775 8.375 4 10.2667 4 12.5C4 14.7333 4.775 16.625 6.325 18.175C7.875 19.725 9.76667 20.5 12 20.5Z" fill="#2196F3"/>
</svg>
